<?xml version="1.0" standalone="no"?><!DOCTYPE svg PUBLIC "-//W3C//DTD SVG 1.1//EN" "http://www.w3.org/Graphics/SVG/1.1/DTD/svg11.dtd"><svg t="1533611834692" class="icon" style="" viewBox="0 0 1024 1024" version="1.1" xmlns="http://www.w3.org/2000/svg" p-id="3424" xmlns:xlink="http://www.w3.org/1999/xlink" width="32" height="32"><defs><style type="text/css"></style></defs><path d="M906.24 779.776c-3.584 35.84-14.848 88.064-69.12 179.712h-225.28c-24.576-40.96-105.472-159.232-226.304-176.128-18.432-2.56-43.52-14.848-43.52-23.552 0-10.24 17.408-19.968 25.088-22.528 0.512 0 39.936-14.336 73.728-14.336 15.872 0 56.32 16.384 76.8 29.184l38.912 24.576v-413.696c0-16.384 11.264-29.696 24.576-29.696h4.608c13.824 0 24.576 13.312 24.576 29.696v241.152h50.688v-309.248c0-16.384 11.264-29.696 24.576-29.696h4.608c13.824 0 24.576 13.312 24.576 29.696v309.248h50.688V394.752c0-16.384 11.264-29.696 24.576-29.696h4.608c13.824 0 24.576 13.312 24.576 29.696v209.408h50.688v-140.288c0-14.848 8.704-25.6 16.384-25.6h3.584c7.68 0 16.384 10.752 16.384 25.6v315.904z m51.2-315.904c0-41.984-30.208-76.8-67.072-76.8h-3.584c-5.632 0-11.264 1.024-16.384 2.56-2.56-41.472-35.84-75.264-75.264-75.264h-4.608c-8.704 0-16.896 1.536-24.576 4.608v-23.552c0-44.032-34.304-80.384-75.776-80.384h-4.608c-39.424 0-71.68 32.256-75.264 72.704-7.68-3.072-16.384-4.608-25.088-4.608h-4.608c-41.472 0-75.776 36.352-75.776 80.384v326.656c-22.016-9.216-46.592-17.408-65.024-17.408-43.008 0-89.088 16.384-91.136 16.896-22.016 7.68-58.88 31.232-58.88 70.656 0 51.2 63.488 70.656 88.064 74.24 117.248 15.872 202.24 176.128 202.24 176.128h284.16s84.48-160.768 91.136-223.232c2.56-4.608 2.048-323.584 2.048-323.584z" p-id="3425" fill="#1890ff"></path><path d="M380.416 867.84h-222.208c-16.896 0-30.72-13.824-30.72-30.72V104.448c0-16.896 13.824-30.72 30.72-30.72h580.096c16.896 0 30.72 13.824 30.72 30.72v126.976c0 16.896 13.824 30.72 30.72 30.72s30.72-13.824 30.72-30.72v-126.976c0-50.176-40.96-91.648-91.648-91.648H158.72c-50.176 0-91.648 40.96-91.648 91.648v732.672c0 50.176 40.96 91.648 91.648 91.648h222.208c16.896 0 30.72-13.824 30.72-30.72s-14.336-30.208-31.232-30.208z m211.968-686.592h-381.44c-16.896 0-30.72 13.824-30.72 30.72s13.824 30.72 30.72 30.72h381.44c16.896 0 30.72-13.824 30.72-30.72 0-17.408-13.824-30.72-30.72-30.72z m-142.336 137.216h-239.104c-16.896 0-30.72 13.824-30.72 30.72s13.824 30.72 30.72 30.72h239.104c16.896 0 30.72-13.824 30.72-30.72s-13.824-30.72-30.72-30.72z m-5.12 137.216h-233.984c-16.896 0-30.72 13.824-30.72 30.72s13.824 30.72 30.72 30.72h233.984c16.896 0 30.72-13.824 30.72-30.72s-13.824-30.72-30.72-30.72z m-6.656 137.216h-227.328c-16.896 0-30.72 13.824-30.72 30.72s13.824 30.72 30.72 30.72h227.328c16.896 0 30.72-13.824 30.72-30.72s-13.824-30.72-30.72-30.72z" p-id="3426" fill="#1890ff"></path></svg>