<?xml version="1.0" standalone="no"?><!DOCTYPE svg PUBLIC "-//W3C//DTD SVG 1.1//EN" "http://www.w3.org/Graphics/SVG/1.1/DTD/svg11.dtd"><svg t="1534298615168" class="icon" style="" viewBox="0 0 1024 1024" version="1.1" xmlns="http://www.w3.org/2000/svg" p-id="7020" xmlns:xlink="http://www.w3.org/1999/xlink" width="200" height="200"><defs><style type="text/css"></style></defs><path d="M984.501788 708.841288V78.760143a39.380072 39.380072 0 0 0-39.380071-39.380071H78.760143a39.380072 39.380072 0 0 0-39.380071 39.380071v866.361574a39.380072 39.380072 0 0 0 39.380071 39.380071h630.081145v39.380072H78.760143a78.760143 78.760143 0 0 1-78.760143-78.760143V78.760143a78.760143 78.760143 0 0 1 78.760143-78.760143h866.361574a78.760143 78.760143 0 0 1 78.760143 78.760143v630.081145h-39.380072z" fill="#1890ff" p-id="7021"></path><path d="M709.235088 1024v-251.796177a63.008114 63.008114 0 0 1 62.968735-62.968735h251.796177l-314.764912 314.764912z m38.946891-232.696843v113.965927l157.087105-157.087105h-113.965927c-23.824943 0-43.121178 19.296235-43.121178 43.121178zM779.646656 313.97731l-308.857901 308.857901a22.09222 22.09222 0 0 1-18.548014 6.064531 22.24974 22.24974 0 0 1-18.666153-6.143291l-151.416375-151.022574a22.604161 22.604161 0 0 1 0-32.015998 22.722301 22.722301 0 0 1 32.055378 0l138.302811 137.98777 295.429297-295.429296a22.446641 22.446641 0 0 1 31.700957 31.700957z" fill="#1890ff" p-id="7022"></path></svg>