<?xml version="1.0" standalone="no"?><!DOCTYPE svg PUBLIC "-//W3C//DTD SVG 1.1//EN" "http://www.w3.org/Graphics/SVG/1.1/DTD/svg11.dtd"><svg t="1534297738728" class="icon" style="" viewBox="0 0 1024 1024" version="1.1" xmlns="http://www.w3.org/2000/svg" p-id="1935" xmlns:xlink="http://www.w3.org/1999/xlink" width="200" height="200"><defs><style type="text/css"></style></defs><path d="M102.536816 508.128833 512.747525 126.340453l410.209686 381.788379-0.051165 0 0 436.399161c0 9.44614-8.303106 17.147542-18.452257 17.147542L686.68195 961.675536c84.114746-49.724495 140.004661-137.207965 140.004661-236.805334 0-154.729014-134.890176-280.297894-301.244972-280.297894-166.248372 0-301.165154 125.567857-301.165154 280.297894 0 99.597369 55.861262 187.080839 139.977032 236.805334L121.738134 961.675536c-10.175757 0-18.451234-7.700379-18.451234-17.147542l0-436.399161L102.536816 508.128833 102.536816 508.128833zM667.320996 538.921139l-53.9354 0L544.50788 688.084391c-5.516644 11.675924-9.988492 22.815635-13.415544 33.135678l-1.071402 0c-4.76656-12.920264-9.105379-23.607674-12.854772-31.892361l-68.583005-150.406568-57.629535 0 97.905844 192.928011-80.071663 0 0 42.663682 95.094822 0 0 59.172681-95.094822 0 0 42.862203 95.094822 0 0 85.126796 50.506301 0 0-85.126796 92.282776 0 0-42.862203-92.282776 0L554.388924 774.512832l92.282776 0 0-42.663682-78.625732 0L667.320996 538.921139 667.320996 538.921139zM146.910443 289.318338l0 110.639866-86.658685 80.653925 0.74906 0c1.90028 30.332842 2.169409 34.396391 1.90028 34.396391L512.399601 96.65434l446.871677 415.861406 0-31.903617 0.054235 0L509.774821 62.259996 207.835024 343.230202l0-53.911864L146.910443 289.318338z" p-id="1936" fill="#1890ff"></path></svg>