<?xml version="1.0" standalone="no"?><!DOCTYPE svg PUBLIC "-//W3C//DTD SVG 1.1//EN" "http://www.w3.org/Graphics/SVG/1.1/DTD/svg11.dtd"><svg t="1534732926786" class="icon" style="" viewBox="0 0 1377 1024" version="1.1" xmlns="http://www.w3.org/2000/svg" p-id="2676" xmlns:xlink="http://www.w3.org/1999/xlink" width="268.9453125" height="200"><defs><style type="text/css"></style></defs><path d="M1076.019704 1014.857143c81.024631-92.059113 130.206897-212.807882 130.206897-345.221675 0-288.157635-233.615764-521.773399-521.773399-521.773399S162.679803 381.477833 162.679803 669.635468c0 132.413793 49.182266 253.162562 130.522167 344.906404l782.817734 0.315271z" fill="#DEEAFC" p-id="2677" data-spm-anchor-id="a313x.7781069.0.i6" class="selected"></path><path d="M1371.1133 1024h-41.931034c-3.46798 0-6.305419-2.837438-6.305419-6.305419s2.837438-6.305419 6.305419-6.305418h41.931034c3.46798 0 6.305419 2.837438 6.305419 6.305418s-2.837438 6.305419-6.305419 6.305419zM1311.842365 1024h-13.556651c-3.46798 0-6.305419-2.837438-6.305418-6.305419s2.837438-6.305419 6.305418-6.305418h13.556651c3.46798 0 6.305419 2.837438 6.305418 6.305418s-2.837438 6.305419-6.305418 6.305419zM1278.108374 1024H497.812808c-3.46798 0-6.305419-2.837438-6.305419-6.305419s2.837438-6.305419 6.305419-6.305418h780.295566c3.46798 0 6.305419 2.837438 6.305419 6.305418s-2.837438 6.305419-6.305419 6.305419z" fill="#69A4CC" p-id="2678"></path><path d="M497.812808 1024H216.591133c-3.46798 0-6.305419-2.837438-6.305419-6.305419s2.837438-6.305419 6.305419-6.305418h281.221675c3.46798 0 6.305419 2.837438 6.305419 6.305418s-2.837438 6.305419-6.305419 6.305419zM186.955665 1024H21.123153c-3.46798 0-6.305419-2.837438-6.305419-6.305419s2.837438-6.305419 6.305419-6.305418h165.832512c3.46798 0 6.305419 2.837438 6.305419 6.305418s-2.837438 6.305419-6.305419 6.305419z" fill="#69A4CC" p-id="2679"></path><path d="M1372.374384 413.635468H1358.817734c-1.576355 0-2.837438-1.261084-2.837438-2.837438s1.261084-2.837438 2.837438-2.837439h13.55665c1.576355 0 2.837438 1.261084 2.837439 2.837439s-1.261084 2.837438-2.837439 2.837438zM1365.753695 429.399015c-0.630542 0-1.576355-0.315271-1.891626-0.945813l-9.773399-9.773399c-1.261084-1.261084-0.945813-2.837438 0-4.098522 1.261084-1.261084 2.837438-0.945813 4.098522 0l9.773399 9.773399c1.261084 1.261084 0.945813 2.837438 0 4.098522-0.630542 0.630542-1.576355 0.945813-2.206896 0.945813zM1349.990148 435.704433c-1.576355 0-2.837438-1.261084-2.837439-2.837438V419.310345c0-1.576355 1.261084-2.837438 2.837439-2.837439s2.837438 1.261084 2.837438 2.837439v13.55665c0 1.576355-1.261084 2.837438-2.837438 2.837438zM1334.226601 429.083744c-0.630542 0-1.576355-0.315271-1.891626-0.945813-0.945813-1.261084-0.945813-2.837438 0-4.098522l9.773399-9.773399c1.261084-0.945813 2.837438-0.945813 4.098523 0 0.945813 1.261084 0.945813 2.837438 0 4.098522l-9.773399 9.773399c-0.630542 0.630542-1.261084 0.945813-2.206897 0.945813zM1341.793103 413.320197h-13.55665c-1.576355 0-2.837438-1.261084-2.837438-2.837438s1.261084-2.837438 2.837438-2.837439h13.55665c1.576355 0 2.837438 1.261084 2.837439 2.837439s-1.261084 2.837438-2.837439 2.837438zM1344.315271 407.330049c-0.630542 0-1.576355-0.315271-1.891626-0.945813l-9.458128-9.773399c-0.945813-1.261084-0.945813-2.837438 0-4.098522 1.261084-0.945813 2.837438-0.945813 4.098522 0l9.458128 9.773399c0.945813 1.261084 0.945813 2.837438 0 4.098522-0.630542 0.630542-1.576355 0.945813-2.206896 0.945813zM1350.305419 405.123153c-1.576355 0-2.837438-1.261084-2.837439-2.837439v-13.55665c0-1.576355 1.261084-2.837438 2.837439-2.837438s2.837438 1.261084 2.837438 2.837438v13.55665c0 1.576355-1.261084 2.837438-2.837438 2.837439zM1356.295567 407.64532c-0.630542 0-1.576355-0.315271-1.891626-0.945813-0.945813-1.261084-0.945813-2.837438 0-4.098522l9.773399-9.458128c1.261084-0.945813 2.837438-0.945813 4.098522 0 0.945813 1.261084 0.945813 2.837438 0 4.098522l-9.773399 9.458128c-0.630542 0.630542-1.261084 0.945813-2.206896 0.945813z" fill="#EFE1BF" p-id="2680"></path><path d="M1363.862069 428.453202l-9.773399-9.773399c-1.261084-1.261084-0.945813-2.837438 0-4.098522 1.261084-1.261084 2.837438-0.945813 4.098522 0l9.773399 9.773399c1.261084 1.261084 0.945813 2.837438 0 4.098522s-3.152709 1.261084-4.098522 0zM1348.098522 434.758621c-0.630542-0.630542-0.945813-1.261084-0.945813-1.891626V419.310345c0-1.576355 1.261084-2.837438 2.837439-2.837439s2.837438 1.261084 2.837438 2.837439v13.55665c0 1.576355-1.261084 2.837438-2.837438 2.837438-0.945813 0-1.576355-0.315271-1.891626-0.945812zM1332.334975 428.137931c-1.261084-1.261084-0.945813-2.837438 0-4.098522l9.773399-9.773399c1.261084-0.945813 2.837438-0.945813 4.098523 0 0.945813 1.261084 0.945813 2.837438 0 4.098522l-9.773399 9.773399c-1.261084 1.261084-3.152709 1.261084-4.098523 0zM1326.029557 412.374384c-0.630542-0.630542-0.945813-1.261084-0.945813-1.891625 0-1.576355 1.261084-2.837438 2.837438-2.837439h13.556651c1.576355 0 2.837438 1.261084 2.837438 2.837439s-1.261084 2.837438-2.837438 2.837438h-13.556651c-0.630542 0-1.261084-0.315271-1.891625-0.945813zM1342.423645 406.384236l-9.458128-9.773399c-0.945813-1.261084-0.945813-2.837438 0-4.098522 1.261084-0.945813 2.837438-0.945813 4.098522 0l9.458128 9.773399c0.945813 1.261084 0.945813 2.837438 0 4.098522-1.261084 1.261084-3.152709 1.261084-4.098522 0zM1348.413793 404.17734c-0.630542-0.630542-0.945813-1.261084-0.945813-1.891626v-13.55665c0-1.576355 1.261084-2.837438 2.837439-2.837438s2.837438 1.261084 2.837438 2.837438v13.55665c0 1.576355-1.261084 2.837438-2.837438 2.837439-0.630542 0-1.261084-0.315271-1.891626-0.945813zM1354.403941 407.014778s0-0.315271 0 0c-1.261084-1.261084-0.945813-2.837438 0-4.098522l9.773399-9.458128c1.261084-0.945813 2.837438-0.945813 4.098522 0 0.945813 1.261084 0.945813 2.837438 0 4.098522l-9.773399 9.458128c-1.261084 0.945813-3.152709 0.945813-4.098522 0zM1356.610837 413.004926c-0.630542-0.630542-0.945813-1.261084-0.945812-1.891626 0-1.576355 1.261084-2.837438 2.837438-2.837438l13.55665 0.315271c1.576355 0 2.837438 1.261084 2.837439 2.837438s-1.261084 2.837438-2.837439 2.837439l-13.55665-0.315271-1.891626-0.945813z" fill="#EFE1BF" p-id="2681"></path><path d="M1036.295567 150.068966h-15.133005c-1.891626 0-3.152709-1.261084-3.15271-3.15271s1.261084-3.152709 3.15271-3.152709h15.133005c1.891626 0 3.152709 1.261084 3.152709 3.152709s-1.576355 3.152709-3.152709 3.15271zM1028.729064 167.408867c-0.945813 0-1.576355-0.315271-2.206897-0.945813l-10.719211-10.719212c-1.261084-1.261084-1.261084-3.152709 0-4.413793s3.152709-1.261084 4.413793 0l10.719212 10.719212c1.261084 1.261084 1.261084 3.152709 0 4.413793-0.630542 0.630542-1.261084 0.945813-2.206897 0.945813zM1011.389163 174.344828c-1.891626 0-3.152709-1.576355-3.15271-3.15271v-15.133005c0-1.891626 1.261084-3.152709 3.15271-3.152709s3.152709 1.576355 3.152709 3.152709v15.133005c0 1.891626-1.576355 3.152709-3.152709 3.15271zM993.73399 167.093596c-0.945813 0-1.576355-0.315271-2.206896-0.945813-1.261084-1.261084-1.261084-3.152709 0-4.413793l10.719211-10.719212c1.261084-1.261084 3.152709-1.261084 4.413794 0s1.261084 3.152709 0 4.413793l-10.719212 10.719212c-0.630542 0.630542-1.261084 0.945813-2.206897 0.945813zM1001.931034 149.438424H986.79803c-1.891626 0-3.152709-1.576355-3.15271-3.15271s1.576355-3.152709 3.15271-3.152709h15.133004c1.891626 0 3.152709 1.576355 3.15271 3.152709 0 1.891626-1.261084 3.152709-3.15271 3.15271zM1005.083744 142.817734c-0.945813 0-1.576355-0.315271-2.206897-0.945813l-10.719212-11.034483c-1.261084-1.261084-1.261084-3.152709 0-4.413793s3.152709-1.261084 4.413794 0l10.719211 11.034483c1.261084 1.261084 1.261084 3.152709 0 4.413793-0.630542 0.630542-1.576355 0.945813-2.206896 0.945813zM1011.704433 140.295567c-1.891626 0-3.152709-1.576355-3.152709-3.15271l0.315271-15.133005c0-1.576355 1.576355-3.152709 3.152709-3.152709 1.891626 0 3.152709 1.576355 3.15271 3.152709l-0.315271 15.133005c0 1.891626-1.261084 3.152709-3.15271 3.15271zM1018.325123 143.448276c-0.945813 0-1.576355-0.315271-2.206896-0.945813-1.261084-1.261084-1.261084-3.152709 0-4.413793l11.034482-10.719212c1.261084-1.261084 3.152709-1.261084 4.413793 0s1.261084 3.152709 0 4.413793l-11.034482 10.719212c-0.630542 0.630542-1.261084 0.945813-2.206897 0.945813z" fill="#DCE7F9" p-id="2682"></path><path d="M1026.522167 166.463054l-10.719211-10.719212c-1.261084-1.261084-1.261084-3.152709 0-4.413793s3.152709-1.261084 4.413793 0l10.719212 10.719212c1.261084 1.261084 1.261084 3.152709 0 4.413793-0.945813 1.261084-3.152709 1.261084-4.413794 0zM1009.182266 173.399015c-0.630542-0.630542-0.945813-1.261084-0.945813-2.206897v-15.133005c0-1.891626 1.576355-3.152709 3.15271-3.152709 1.891626 0 3.152709 1.576355 3.152709 3.152709v15.133005c0 1.891626-1.576355 3.152709-3.152709 3.15271-0.945813 0-1.891626-0.315271-2.206897-0.945813zM991.527094 166.147783c-1.261084-1.261084-1.261084-3.152709 0-4.413793l10.719211-10.719212c1.261084-1.261084 3.152709-1.261084 4.413794 0 1.261084 1.261084 1.261084 3.152709 0 4.413793l-10.719212 10.719212c-0.945813 1.261084-3.152709 1.261084-4.413793 0zM984.591133 148.492611c-0.630542-0.630542-0.945813-1.261084-0.945813-2.206897 0-1.891626 1.576355-3.152709 3.15271-3.152709h15.133004c1.891626 0 3.152709 1.576355 3.15271 3.152709 0 1.891626-1.576355 3.152709-3.15271 3.15271H986.79803c-0.945813 0-1.576355-0.315271-2.206897-0.945813zM1002.876847 141.871921l-10.719212-11.034483c-1.261084-1.261084-1.261084-3.152709 0-4.413793s3.152709-1.261084 4.413794 0l10.719211 10.719212c1.261084 1.261084 1.261084 3.152709 0 4.413793-1.261084 1.576355-3.152709 1.576355-4.413793 0.315271zM1009.497537 139.349754c-0.630542-0.630542-0.945813-1.261084-0.945813-2.206897l0.315271-15.133005c0-1.891626 1.576355-3.152709 3.152709-3.152709 1.891626 0 3.152709 1.576355 3.15271 3.152709l-0.315271 15.133005c0 1.891626-1.576355 3.152709-3.15271 3.15271-0.630542 0-1.576355-0.315271-2.206896-0.945813zM1016.118227 142.502463c-1.261084-1.261084-1.261084-3.152709 0-4.413793l11.034482-10.719212c1.261084-1.261084 3.152709-1.261084 4.413793 0 1.261084 1.261084 1.261084 3.152709 0 4.413793l-11.034482 10.719212c-1.261084 1.261084-3.152709 0.945813-4.413793 0zM1018.640394 149.123153c-0.630542-0.630542-0.945813-1.261084-0.945813-2.206897 0-1.891626 1.576355-3.152709 3.15271-3.152709l15.133005 0.315271c1.891626 0 3.152709 1.576355 3.152709 3.152709 0 1.891626-1.576355 3.152709-3.152709 3.152709l-15.133005-0.31527c-0.630542 0-1.576355-0.315271-2.206897-0.945813z" fill="#DCE7F9" p-id="2683"></path><path d="M52.650246 389.044335h-15.133005c-1.891626 0-3.152709-1.261084-3.152709-3.152709s1.261084-3.152709 3.152709-3.15271h15.133005c1.891626 0 3.152709 1.261084 3.15271 3.15271s-1.261084 3.152709-3.15271 3.152709zM45.399015 406.384236c-0.945813 0-1.576355-0.315271-2.206897-0.945812l-10.719212-10.719212c-1.261084-1.261084-1.261084-3.152709 0-4.413793s3.152709-1.261084 4.413794 0l10.719211 10.719212c1.261084 1.261084 1.261084 3.152709 0 4.413793-0.630542 0.630542-1.576355 0.945813-2.206896 0.945812zM27.743842 413.635468c-1.891626 0-3.152709-1.576355-3.152709-3.152709v-15.133005c0-1.891626 1.261084-3.152709 3.152709-3.15271s3.152709 1.576355 3.15271 3.15271v15.133005c0 1.576355-1.576355 3.152709-3.15271 3.152709zM10.403941 406.068966c-0.945813 0-1.576355-0.315271-2.206897-0.945813-1.261084-1.261084-1.261084-3.152709 0-4.413793l10.719212-10.719212c1.261084-1.261084 3.152709-1.261084 4.413793 0s1.261084 3.152709 0 4.413793L12.610837 405.123153c-0.630542 0.630542-1.576355 0.945813-2.206896 0.945813zM18.600985 388.729064H3.46798c-1.891626 0-3.152709-1.576355-3.152709-3.152709s1.576355-3.152709 3.152709-3.15271h15.133005c1.891626 0 3.152709 1.576355 3.15271 3.15271s-1.576355 3.152709-3.15271 3.152709zM21.438424 382.108374c-0.945813 0-1.576355-0.315271-2.206897-0.945812l-10.719212-11.034483c-1.261084-1.261084-1.261084-3.152709 0-4.413793s3.152709-1.261084 4.413793 0l10.719212 11.034482c1.261084 1.261084 1.261084 3.152709 0 4.413794-0.630542 0.630542-1.261084 0.945813-2.206896 0.945812zM28.374384 379.270936s-0.315271 0 0 0c-1.891626 0-3.152709-1.576355-3.152709-3.152709l0.315271-15.133005c0-1.576355 1.576355-3.152709 3.152709-3.15271 1.891626 0 3.152709 1.576355 3.15271 3.15271l-0.315271 15.133005c-0.315271 1.891626-1.576355 3.152709-3.15271 3.152709zM34.995074 382.423645c-0.945813 0-1.576355-0.315271-2.206897-0.945812-1.261084-1.261084-1.261084-3.152709 0-4.413794l11.034483-10.719211c1.261084-1.261084 3.152709-1.261084 4.413793 0s1.261084 3.152709 0 4.413793l-11.034483 10.719212c-0.630542 0.630542-1.576355 0.945813-2.206896 0.945812z" fill="#D2E2F9" p-id="2684"></path><path d="M42.876847 405.438424l-10.719212-10.719212c-1.261084-1.261084-1.261084-3.152709 0-4.413793s3.152709-1.261084 4.413794 0l10.719211 10.719212c1.261084 1.261084 1.261084 3.152709 0 4.413793s-3.152709 1.261084-4.413793 0zM25.536946 412.689655c-0.630542-0.630542-0.945813-1.261084-0.945813-2.206896v-15.133005c0-1.891626 1.576355-3.152709 3.152709-3.15271 1.891626 0 3.152709 1.576355 3.15271 3.15271v15.133005c0 1.891626-1.576355 3.152709-3.15271 3.152709-0.945813 0-1.576355-0.630542-2.206896-0.945813zM7.881773 405.123153c-1.261084-1.261084-1.261084-3.152709 0-4.413793l10.719212-10.719212c1.261084-1.261084 3.152709-1.261084 4.413793 0 1.261084 1.261084 1.261084 3.152709 0 4.413793l-10.719211 10.719212c-0.945813 1.261084-3.152709 1.261084-4.413794 0zM0.945813 387.46798c-0.630542-0.630542-0.945813-1.261084-0.945813-2.206896 0-1.891626 1.576355-3.152709 3.152709-3.15271h15.133005c1.891626 0 3.152709 1.576355 3.15271 3.15271 0 1.891626-1.576355 3.152709-3.15271 3.152709H3.152709c-0.630542 0-1.576355-0.315271-2.206896-0.945813zM19.231527 381.162562l-10.719212-11.034483c-1.261084-1.261084-1.261084-3.152709 0-4.413793s3.152709-1.261084 4.413793 0l10.719212 10.719212c1.261084 1.261084 1.261084 3.152709 0 4.413793s-3.152709 1.261084-4.413793 0.315271zM25.852217 378.325123c-0.630542-0.630542-0.945813-1.261084-0.945813-2.206896l0.315271-15.133005c0-1.891626 1.576355-3.152709 3.152709-3.15271 1.891626 0 3.152709 1.576355 3.15271 3.15271l-0.315271 15.133005c0 1.891626-1.576355 3.152709-3.15271 3.152709-0.630542 0-1.576355-0.315271-2.206896-0.945813zM32.472906 381.477833c-1.261084-1.261084-1.261084-3.152709 0-4.413794l11.034483-10.719211c1.261084-1.261084 3.152709-1.261084 4.413793 0 1.261084 1.261084 1.261084 3.152709 0 4.413793l-11.034482 10.719212c-0.945813 1.261084-3.152709 1.261084-4.413794 0zM35.310345 388.098522c-0.630542-0.630542-0.945813-1.261084-0.945813-2.206896 0-1.891626 1.576355-3.152709 3.152709-3.15271l15.133005 0.315271c1.891626 0 3.152709 1.576355 3.15271 3.15271 0 1.891626-1.576355 3.152709-3.15271 3.152709l-15.133005-0.315271c-0.945813 0-1.891626-0.315271-2.206896-0.945813z" fill="#D2E2F9" p-id="2685"></path><path d="M264.197044 290.679803h-6.305418v-6.305419c0-1.891626-1.261084-3.152709-3.15271-3.152709s-3.152709 1.261084-3.152709 3.152709v6.305419h-6.305419c-1.891626 0-3.152709 1.261084-3.152709 3.152709s1.261084 3.152709 3.152709 3.15271h6.305419v6.305418c0 1.891626 1.261084 3.152709 3.152709 3.15271s3.152709-1.261084 3.15271-3.15271v-6.305418h6.305418c1.891626 0 3.152709-1.261084 3.15271-3.15271s-1.576355-3.152709-3.15271-3.152709z" fill="#E2E2E2" p-id="2686"></path><path d="M551.724138 75.034483h-12.610838v-12.610838c0-3.46798-2.837438-6.305419-6.305418-6.305418s-6.305419 2.837438-6.305419 6.305418v12.610838h-12.610837c-3.46798 0-6.305419 2.837438-6.305419 6.305418s2.837438 6.305419 6.305419 6.305419h12.610837v12.610838c0 3.46798 2.837438 6.305419 6.305419 6.305418s6.305419-2.837438 6.305418-6.305418v-12.610838h12.610838c3.46798 0 6.305419-2.837438 6.305419-6.305419s-2.837438-6.305419-6.305419-6.305418z" fill="#EFE1BF" p-id="2687"></path><path d="M251.901478 116.019704m-9.773399 0a9.773399 9.773399 0 1 0 19.546798 0 9.773399 9.773399 0 1 0-19.546798 0Z" fill="#DCE7F9" p-id="2688"></path><path d="M961.891626 613.20197c-2.522167 0-4.729064 2.206897-4.729064 4.729064v137.142858H366.029557v-321.576355c0-11.034483 8.827586-19.862069 19.862069-19.862069h403.546798c2.522167 0 4.729064-2.206897 4.729064-4.729064s-2.206897-4.729064-4.729064-4.729064h-403.546798c-16.078818 0-29.320197 13.241379-29.320197 29.320197v349.635468c0 16.078818 13.241379 29.320197 29.320197 29.320197h551.408867c16.078818 0 29.320197-13.241379 29.320197-29.320197V617.931034c0-2.522167-2.206897-4.729064-4.729064-4.729064z m-24.591133 189.793104H385.891626c-11.034483 0-19.862069-8.827586-19.862069-19.862069v-21.753695h591.133005v21.753695c0 11.034483-8.827586 19.862069-19.862069 19.862069z" fill="#78BFEF" p-id="2689"></path><path d="M661.753695 789.753695c-4.413793 0-8.197044-3.783251-8.197045-8.197045s3.783251-8.197044 8.197045-8.197044 8.197044 3.783251 8.197044 8.197044-3.783251 8.197044-8.197044 8.197045z m0-13.24138c-2.837438 0-5.044335 2.206897-5.044335 5.044335 0 2.837438 2.206897 5.044335 5.044335 5.044335s5.044335-2.206897 5.044335-5.044335-2.206897-5.044335-5.044335-5.044335z" fill="#78BFEF" p-id="2690"></path><path d="M603.743842 858.482759h112.236454v6.305418h-112.236454z" fill="#78BFEF" p-id="2691"></path><path d="M661.753695 936.35468h-108.137931c-6.62069 0-12.610837-4.098522-15.133005-10.403941s-0.630542-13.241379 4.413793-17.655172l58.009852-46.029557c1.261084-0.945813 1.891626-2.837438 1.891626-4.729064v-46.344828h9.458128V857.536946c0 4.729064-1.891626 9.142857-5.359606 11.980295l-58.009852 46.029557c-2.837438 2.522167-1.891626 5.990148-1.576355 7.251232 0.945813 2.206897 2.837438 4.413793 6.305419 4.413793h108.137931v9.142857z" fill="#78BFEF" p-id="2692"></path><path d="M769.891626 936.35468h-108.137931v-9.458128h108.137931c3.46798 0 5.359606-2.206897 6.305418-4.413793 0.315271-0.945813 1.261084-4.413793-1.891625-7.251232l-57.379311-46.029557c-3.46798-3.152709-5.674877-7.566502-5.674876-12.295566v-46.344828h9.458128v46.344828c0 1.891626 0.945813 3.783251 2.206896 5.044335l57.379311 46.029557c5.359606 4.729064 6.935961 11.665025 4.729064 17.970443-2.522167 6.305419-8.512315 10.403941-15.133005 10.403941z" fill="#78BFEF" p-id="2693"></path><path d="M897.891626 570.325123c-2.206897 0-4.413793-0.630542-6.305419-1.576355l-37.832512-19.546798c-6.62069-3.46798-9.458128-11.349754-6.305419-18.285714l7.881773-17.339901c1.891626-4.413793 1.576355-9.458128-1.261083-13.556651l-0.315271-0.630541c-2.522167-4.098522-6.935961-6.62069-11.665025-6.62069l-19.231527-0.315271c-7.566502 0-13.55665-5.990148-13.871921-13.55665l-1.891626-42.876848c-0.315271-7.566502 5.044335-13.871921 12.610837-14.502463l18.916257-1.891625c4.729064-0.630542 8.827586-3.46798 11.034482-7.566503l0.315271-0.630542c2.206897-4.413793 2.206897-9.458128-0.315271-13.871921l-9.458128-16.709359c-3.783251-6.62069-1.576355-14.817734 4.729064-18.600986l35.940887-23.014778c6.305419-4.098522 14.502463-2.522167 18.916256 3.46798l11.349754 15.448276c2.837438 3.783251 7.251232 5.990148 12.295566 5.674877h0.630542c4.729064-0.315271 9.142857-2.837438 11.665025-6.93596l9.773399-16.70936c3.783251-6.305419 11.980296-8.827586 18.600985-5.359606l37.832512 19.546798c6.62069 3.46798 9.458128 11.349754 6.305419 18.285714l-7.881773 17.339902c-1.891626 4.413793-1.576355 9.458128 1.261084 13.55665l0.31527 0.630542c2.522167 4.098522 6.935961 6.62069 11.665025 6.62069l19.231527 0.31527c7.566502 0 13.55665 5.990148 13.871921 13.556651l1.891626 42.876847c0.315271 7.566502-5.044335 13.871921-12.610837 14.502463l-18.916257 1.891626c-4.729064 0.630542-8.827586 3.46798-11.034482 7.566502l-0.315271 0.315271c-2.206897 4.413793-2.206897 9.458128 0.315271 13.871921l9.458128 16.70936c3.783251 6.62069 1.576355 14.817734-4.729064 18.600985l-35.940887 23.014778c-6.305419 4.098522-14.502463 2.522167-18.916256-3.46798l-11.349754-15.448276c-2.837438-3.783251-7.251232-5.990148-12.295566-5.674877h-0.630542c-4.729064 0.315271-9.142857 2.837438-11.665025 6.935961l-9.773399 16.70936c-2.837438 4.729064-7.251232 7.251232-12.295566 7.251231z m-35.940887-75.665024c4.413793 6.935961 5.044335 15.133005 1.891626 22.384236l-7.881774 17.339901c-0.945813 2.206897 0 4.729064 2.206897 5.990148l37.832512 19.546798c2.206897 1.261084 4.729064 0.315271 5.990148-1.891625l9.773399-16.70936c4.098522-6.935961 11.349754-11.034483 19.231527-11.349754l0.630542 4.729064-0.315271-4.729064c8.197044-0.315271 15.763547 3.152709 20.492611 9.773399l11.349753 15.448276c1.576355 1.891626 4.098522 2.522167 6.305419 1.261084l35.940887-23.014778c2.206897-1.261084 2.837438-4.098522 1.576354-5.990148l-9.458128-16.70936c-4.098522-6.935961-4.098522-15.448276-0.315271-22.699507l0.315271-0.630542c3.783251-7.251232 10.719212-11.980296 18.600986-12.610837l18.916256-1.891626c2.522167-0.315271 4.098522-2.206897 4.098522-4.729064l-1.891626-42.876847c0-2.522167-2.206897-4.413793-4.413793-4.413793l-19.231527-0.315271c-7.881773 0-15.448276-4.098522-19.546798-11.034483l-0.315271-0.315271c-4.413793-6.935961-5.044335-15.133005-1.891625-22.699508l7.881773-17.339901c0.945813-2.206897 0-4.729064-2.206897-5.990148l-37.832512-19.546798c-2.206897-1.261084-4.729064-0.315271-5.990148 1.891626l-9.773399 16.709359c-4.098522 6.935961-11.349754 11.034483-19.231527 11.349754l-0.630542-4.729064 0.315271 4.729064c-8.197044 0.315271-15.763547-3.152709-20.492611-9.773399l-11.349753-15.448276c-1.576355-1.891626-4.098522-2.522167-6.305419-1.261084l-36.256158 23.014779c-2.206897 1.261084-2.837438 4.098522-1.576354 5.990148l9.458128 16.709359c4.098522 6.935961 4.098522 15.448276 0.315271 22.699508l-0.315271 0.630541c-3.783251 7.251232-10.719212 11.980296-18.600985 12.610838l-18.916257 1.891626c-2.522167 0.315271-4.098522 2.206897-4.098522 4.729064l1.891626 42.876847c0 2.522167 2.206897 4.413793 4.413793 4.413793l19.231527 0.315271c7.881773 0 15.448276 4.098522 19.546798 11.034483l-3.783251 3.152709 4.413793-2.522167z m65.576355 3.783251c-7.251232 0-14.502463-1.576355-21.438424-5.044335-22.699507-11.665025-31.527094-39.724138-19.862069-62.423646 5.674877-11.034483 15.448276-19.231527 27.1133-23.014778s24.275862-2.522167 35.310345 3.152709c22.699507 11.665025 31.527094 39.724138 19.862069 62.423646-7.881773 15.763547-23.960591 24.906404-40.985221 24.906404z m-16.70936-13.55665c17.970443 9.458128 40.35468 2.206897 49.812808-15.763547s2.206897-40.35468-15.763547-49.812808c-8.827586-4.413793-18.916256-5.359606-28.059113-2.522168-9.458128 2.837438-17.024631 9.458128-21.753695 18.285715-9.458128 17.970443-2.522167 40.35468 15.763547 49.812808z" fill="#D6BF83" p-id="2694"></path><path d="M439.172414 538.167488c-1.576355 0-3.152709-0.945813-4.098522-2.206897l-22.068966-37.832512 22.068966-37.832512c1.261084-2.206897 4.098522-3.152709 6.305418-1.576355 2.206897 1.261084 3.152709 4.098522 1.576355 6.305419l-19.231527 33.103448 19.546798 32.788177c1.261084 2.206897 0.630542 5.044335-1.576355 6.305419-0.945813 0.630542-1.576355 0.945813-2.522167 0.945813zM522.719212 538.167488c-0.945813 0-1.576355-0.315271-2.522168-0.630542-2.206897-1.261084-3.152709-4.098522-1.576354-6.305419l19.231527-33.103448-19.231527-33.103448c-1.261084-2.206897-0.630542-5.044335 1.576354-6.305419s5.044335-0.630542 6.305419 1.576355l22.068966 37.832512-22.068966 37.832512c-0.630542 1.261084-2.206897 2.206897-3.783251 2.206897zM464.078818 540.374384c-0.630542 0-1.261084 0-1.891626-0.315271-2.522167-0.945813-3.46798-3.783251-2.522167-6.305418l34.049261-75.665025c0.945813-2.522167 3.783251-3.46798 6.305418-2.522168s3.46798 3.783251 2.522168 6.305419l-34.049261 75.665025c-0.945813 1.891626-2.837438 2.837438-4.413793 2.837438z" fill="#DBBC6E" p-id="2695"></path><path d="M797.950739 587.034483h-99.625616c-1.891626 0-3.152709-1.261084-3.152709-3.15271s1.261084-3.152709 3.152709-3.152709h99.625616c1.891626 0 3.152709 1.261084 3.152709 3.152709s-1.261084 3.152709-3.152709 3.15271zM686.975369 587.034483h-57.694581c-1.891626 0-3.152709-1.261084-3.152709-3.15271s1.261084-3.152709 3.152709-3.152709h57.694581c1.891626 0 3.152709 1.261084 3.15271 3.152709s-1.576355 3.152709-3.15271 3.15271zM615.724138 587.034483h-151.64532c-1.891626 0-3.152709-1.261084-3.15271-3.15271s1.261084-3.152709 3.15271-3.152709h151.64532c1.891626 0 3.152709 1.261084 3.152709 3.152709s-1.576355 3.152709-3.152709 3.15271zM446.108374 587.034483H425.615764c-1.891626 0-3.152709-1.261084-3.15271-3.15271s1.261084-3.152709 3.15271-3.152709h20.49261c1.891626 0 3.152709 1.261084 3.15271 3.152709s-1.261084 3.152709-3.15271 3.15271zM763.586207 522.403941h-121.694581c-1.891626 0-3.152709-1.261084-3.15271-3.152709s1.261084-3.152709 3.15271-3.15271h121.694581c1.891626 0 3.152709 1.261084 3.152709 3.15271s-1.576355 3.152709-3.152709 3.152709zM623.921182 522.403941h-20.492611c-1.891626 0-3.152709-1.261084-3.152709-3.152709s1.261084-3.152709 3.152709-3.15271h20.492611c1.891626 0 3.152709 1.261084 3.15271 3.15271s-1.576355 3.152709-3.15271 3.152709zM905.773399 650.08867h-130.837438c-1.891626 0-3.152709-1.261084-3.15271-3.152709s1.261084-3.152709 3.15271-3.15271h130.837438c1.891626 0 3.152709 1.261084 3.152709 3.15271s-1.261084 3.152709-3.152709 3.152709zM758.857143 650.08867h-240.236453c-1.891626 0-3.152709-1.261084-3.15271-3.152709s1.261084-3.152709 3.15271-3.15271h240.236453c1.891626 0 3.152709 1.261084 3.152709 3.15271s-1.576355 3.152709-3.152709 3.152709zM502.226601 650.08867h-76.295567c-1.891626 0-3.152709-1.261084-3.152709-3.152709s1.261084-3.152709 3.152709-3.15271h76.295567c1.891626 0 3.152709 1.261084 3.152709 3.15271s-1.576355 3.152709-3.152709 3.152709zM905.773399 713.142857h-94.581281c-1.891626 0-3.152709-1.261084-3.152709-3.152709s1.261084-3.152709 3.152709-3.15271h94.581281c1.891626 0 3.152709 1.261084 3.152709 3.15271s-1.261084 3.152709-3.152709 3.152709zM791.64532 713.142857h-141.241379c-1.891626 0-3.152709-1.261084-3.152709-3.152709s1.261084-3.152709 3.152709-3.15271h141.241379c1.891626 0 3.152709 1.261084 3.15271 3.15271s-1.576355 3.152709-3.15271 3.152709zM611.940887 713.142857h-15.448276c-1.891626 0-3.152709-1.261084-3.15271-3.152709s1.261084-3.152709 3.15271-3.15271h15.448276c1.891626 0 3.152709 1.261084 3.152709 3.15271s-1.576355 3.152709-3.152709 3.152709zM582.935961 713.142857h-166.147784c-1.891626 0-3.152709-1.261084-3.152709-3.152709s1.261084-3.152709 3.152709-3.15271h166.147784c1.891626 0 3.152709 1.261084 3.152709 3.15271s-1.261084 3.152709-3.152709 3.152709z" fill="#BCBCBC" p-id="2696"></path></svg>