<?xml version="1.0" standalone="no"?><!DOCTYPE svg PUBLIC "-//W3C//DTD SVG 1.1//EN" "http://www.w3.org/Graphics/SVG/1.1/DTD/svg11.dtd"><svg t="1534297921363" class="icon" style="" viewBox="0 0 1053 1024" version="1.1" xmlns="http://www.w3.org/2000/svg" p-id="3832" xmlns:xlink="http://www.w3.org/1999/xlink" width="205.6640625" height="200"><defs><style type="text/css"></style></defs><path d="M351.085714 169.866971H234.057143c-20.655543 0-39.789714 10.561829-50.322286 27.765029L9.069714 479.349029c-5.9392 9.069714-9.069714 19.573029-9.069714 30.281142v339.7632c0 31.305143 26.185143 56.641829 58.514286 56.641829h185.5488c24.810057 67.876571 91.136 113.225143 165.536914 113.225143s140.726857-45.348571 165.536914-113.225143h136.981943c28.584229 77.911771 110.972343 124.606171 195.145143 110.592 84.231314-13.955657 145.8176-84.553143 145.934629-167.233829 0.058514-82.768457-61.557029-153.512229-145.846858-167.5264-84.319086-13.984914-166.765714 32.855771-195.232914 110.884572h-136.981943c-24.810057-67.847314-91.136-113.225143-165.536914-113.225143s-140.726857 45.377829-165.536914 113.225143H117.028571v-226.479543h292.571429c15.506286 0.029257 30.427429-5.909943 41.428114-16.530286 10.971429-10.6496 17.144686-25.073371 17.086172-40.082285V113.225143h526.628571c32.329143 0 58.514286-25.365943 58.514286-56.641829C1053.257143 25.365943 1027.072 0 994.742857 0H409.6c-32.329143 0-58.514286 25.365943-58.514286 56.612571v113.2544z m0 113.2544v169.896229H161.909029L267.410286 283.121371H351.085714z m58.514286 509.659429c32.329143 0 58.514286 25.336686 58.514286 56.612571 0 31.305143-26.185143 56.641829-58.514286 56.641829s-58.514286-25.365943-58.514286-56.641829 26.185143-56.612571 58.514286-56.612571z m468.114286 0c32.329143 0 58.514286 25.336686 58.514285 56.612571 0 31.305143-26.185143 56.641829-58.514285 56.641829s-58.514286-25.365943-58.514286-56.641829 26.185143-56.612571 58.514286-56.612571z m-117.028572-453.0176h234.057143c32.329143 0 58.514286-25.365943 58.514286-56.641829s-26.185143-56.612571-58.514286-56.612571h-234.057143c-32.329143 0-58.514286 25.336686-58.514285 56.612571 0 31.305143 26.185143 56.641829 58.514285 56.641829z m0 226.5088h234.057143c32.329143 0 58.514286-25.365943 58.514286-56.641829s-26.185143-56.612571-58.514286-56.612571h-234.057143c-32.329143 0-58.514286 25.336686-58.514285 56.612571 0 31.305143 26.185143 56.641829 58.514285 56.641829z" p-id="3833" fill="#1890ff"></path></svg>