<?xml version="1.0" standalone="no"?><!DOCTYPE svg PUBLIC "-//W3C//DTD SVG 1.1//EN" "http://www.w3.org/Graphics/SVG/1.1/DTD/svg11.dtd"><svg t="1534298669022" class="icon" style="" viewBox="0 0 1024 1024" version="1.1" xmlns="http://www.w3.org/2000/svg" p-id="7803" xmlns:xlink="http://www.w3.org/1999/xlink" width="200" height="200"><defs><style type="text/css"></style></defs><path d="M64.86124 939.6458 64.86124 344.032474l111.677499-65.144696L176.538739 83.452667l670.063969 0 0 195.435111L958.279183 344.032474l0 595.612303L64.86124 939.644777zM809.376874 120.6785 213.763548 120.6785l0 247.332085 297.806663 199.376886 297.806663-199.376886L809.376874 120.6785zM921.05335 381.258307l-18.612916 0L511.570211 641.839137 120.698966 381.258307l-18.612916 0 0 521.160637 818.9673 0L921.05335 381.258307zM325.441047 195.130166l372.258329 0 0 37.225833-372.258329 0L325.441047 195.130166zM586.021877 344.032474 325.441047 344.032474l0-37.225833 260.58083 0L586.021877 344.032474z" p-id="7804" fill="#1890ff"></path></svg>