<?xml version="1.0" standalone="no"?><!DOCTYPE svg PUBLIC "-//W3C//DTD SVG 1.1//EN" "http://www.w3.org/Graphics/SVG/1.1/DTD/svg11.dtd"><svg t="1534298177132" class="icon" style="" viewBox="0 0 1024 1024" version="1.1" xmlns="http://www.w3.org/2000/svg" p-id="6241" xmlns:xlink="http://www.w3.org/1999/xlink" width="200" height="200"><defs><style type="text/css"></style></defs><path d="M273.44 180.10666667H228.8c-63.84 0-115.2 51.36-115.2 115.2v148.8c50.4 0 91.2 40.8 91.2 91.2s-40.8 91.2-91.2 91.2v111.36c0 63.84 51.36 115.2 115.2 115.2h44.64V180.10666667zM867.2 752.74666667c0-22.56 14.4-42.24 34.56-49.44 11.04-4.32 18.24-14.88 18.24-26.88v-4.8c0-12-7.2-22.56-18.24-26.88-20.16-7.68-34.56-26.88-34.56-49.44s14.4-42.24 34.56-49.44c11.04-4.32 18.24-14.88 18.24-26.88v-4.8c0-12-7.2-22.56-18.24-26.88-20.16-7.68-34.56-26.88-34.56-49.44 0-22.56 14.4-42.24 34.56-49.44 11.04-4.32 18.24-14.88 18.24-26.88v-4.8c0-12-7.2-22.56-18.24-26.88-20.16-7.68-34.56-26.88-34.56-49.44 0-23.04 14.88-42.72 35.52-49.92 10.08-3.36 17.28-12.96 17.28-23.52v-2.88c0-13.44-11.04-24.48-24.48-24.48H332.96v673.44h562.08c13.44 0 24.48-11.04 24.48-24.48v-2.88c0-11.04-7.2-20.16-17.28-23.52-20.16-6.72-35.04-26.4-35.04-49.44z m-158.4-273.6c14.88 0 27.36 12 27.36 25.92v0.48c-1.92 14.88-12.96 24.96-27.36 24.96h-56.16v39.84H708.8c14.88 0 27.36 12 27.36 25.92v0.48c-1.92 14.88-12.96 24.96-27.36 24.96h-56.16v50.88c-1.92 13.92-13.92 24.96-27.84 24.96-14.88 0-27.84-11.52-27.84-25.44v-50.4h-57.12c-14.88 0-27.36-12-27.36-25.92 0-13.92 12.48-25.92 27.36-25.92h57.12v-39.84h-57.12c-14.88 0-27.36-12-27.36-25.92s12.48-25.92 27.36-25.92h39.36l-58.08-52.32c-0.48-0.48-1.44-1.44-2.4-1.92-4.32-4.8-6.72-11.04-6.24-17.28 0.48-6.24 3.36-12.48 8.64-16.8 10.56-9.6 27.36-9.6 37.92 0l68.64 62.4 68.64-61.92c10.56-10.08 27.36-10.08 37.92 0l1.92 1.92c4.32 4.8 6.72 11.04 6.24 17.28-0.48 6.24-3.36 12.48-8.64 16.8l-58.08 52.32h33.12z" p-id="6242" fill="#1890ff"></path></svg>