<?xml version="1.0" standalone="no"?><!DOCTYPE svg PUBLIC "-//W3C//DTD SVG 1.1//EN" "http://www.w3.org/Graphics/SVG/1.1/DTD/svg11.dtd"><svg t="1533611844169" class="icon" style="" viewBox="0 0 1024 1024" version="1.1" xmlns="http://www.w3.org/2000/svg" p-id="4142" xmlns:xlink="http://www.w3.org/1999/xlink" width="32" height="32"><defs><style type="text/css"></style></defs><path d="M164.197376 412.476416c-46.78656 0-84.716544 37.074944-84.716544 82.811904 0 45.733888 37.92896 82.806784 84.716544 82.806784 46.785536 0 84.71552-37.072896 84.71552-82.806784 0-45.73696-37.92896-82.811904-84.71552-82.811904z m362.48576 0c-46.784512 0-84.714496 37.074944-84.714496 82.811904 0 45.733888 37.92896 82.806784 84.71552 82.806784 46.78656 0 84.716544-37.072896 84.716544-82.806784 0-45.73696-37.92896-82.811904-84.716544-82.811904z m362.489856 0c-46.787584 0-84.717568 37.074944-84.717568 82.811904 0 45.733888 37.92896 82.806784 84.717568 82.806784 46.785536 0 84.71552-37.072896 84.71552-82.806784 0-45.73696-37.929984-82.811904-84.71552-82.811904z" fill="" p-id="4143"></path></svg>