<?xml version="1.0" standalone="no"?><!DOCTYPE svg PUBLIC "-//W3C//DTD SVG 1.1//EN" "http://www.w3.org/Graphics/SVG/1.1/DTD/svg11.dtd"><svg t="1534298073108" class="icon" style="" viewBox="0 0 1024 1024" version="1.1" xmlns="http://www.w3.org/2000/svg" p-id="5430" xmlns:xlink="http://www.w3.org/1999/xlink" width="200" height="200"><defs><style type="text/css"></style></defs><path d="M962.4 312L736 538.4c-16 16-40.8 16-56.8 0L453.6 312c-16-16-16-40.8 0-56.8L680 29.6c16-16 40.8-16 56.8 0L962.4 256c16 15.2 16 40.8 0 56zM380 972H60c-22.4 0-40-17.6-40-40V612c0-22.4 17.6-40 40-40h320c22.4 0 40 17.6 40 40v320c0 22.4-17.6 40-40 40z m0-480H60c-22.4 0-40-17.6-40-40V132c0-22.4 17.6-40 40-40h320c22.4 0 40 17.6 40 40v320c0 22.4-17.6 40-40 40z m160 80h320c22.4 0 40 17.6 40 40v320c0 22.4-17.6 40-40 40H540c-22.4 0-40-17.6-40-40V612c0-22.4 17.6-40 40-40z" fill="#1890ff" p-id="5431"></path></svg>