<?xml version="1.0" standalone="no"?><!DOCTYPE svg PUBLIC "-//W3C//DTD SVG 1.1//EN" "http://www.w3.org/Graphics/SVG/1.1/DTD/svg11.dtd"><svg t="1533611822441" class="icon" style="" viewBox="0 0 1024 1024" version="1.1" xmlns="http://www.w3.org/2000/svg" p-id="2696" xmlns:xlink="http://www.w3.org/1999/xlink" width="32" height="32"><defs><style type="text/css"></style></defs><path d="M839.305051 193.939394H648.080808v-63.741414c0-46.286869-34.779798-81.066667-81.066667-81.066667h-110.028282c-46.286869 0-81.066667 34.779798-81.066667 81.066667V193.939394H178.747475c-46.286869 0-81.066667 34.779798-81.066667 81.066667v104.210101c0 17.325253 11.636364 28.961616 28.961616 28.961616h34.779798v434.553535c0 75.248485 57.923232 133.171717 133.171717 133.171717h428.735354c81.066667 0 150.626263-57.923232 150.626263-138.989899V408.307071h28.961616c17.325253 0 23.143434-17.325253 23.143434-23.143435v-110.028282c0.129293-46.286869-34.650505-81.19596-86.755555-81.19596z m-411.410102-63.741414c0-17.325253 11.636364-28.961616 28.961617-28.961616h104.210101c17.325253 0 28.961616 11.636364 28.961616 28.961616V193.939394H427.894949v-63.741414zM155.60404 275.135354c0-17.325253 11.636364-28.961616 23.143435-28.961617h660.557576c17.325253 0 28.961616 11.636364 28.961616 28.961617v81.066666H155.60404v-81.066666z m660.557576 561.90707c0 46.286869-34.779798 81.066667-81.066667 81.066667H300.412121c-46.286869 0-81.066667-34.779798-81.066666-81.066667V408.307071h596.816161v428.735353z m0 0" p-id="2697" fill="#1890ff"></path><path d="M512.581818 743.434343l-3.749495 91.539394-0.517171 5.430303-104.468687-7.240404c-5.947475-0.517172-11.507071-3.10303-16.678788-7.886868-5.171717-4.783838-9.050505-10.214141-11.636364-16.290909-1.810101-4.525253-2.973737-9.050505-3.620202-13.705051-0.517172-4.654545-0.258586-10.084848 1.034344-16.161616s2.19798-10.731313 2.973737-13.705051c0.775758-2.973737 2.585859-8.274747 5.30101-15.90303 2.844444-7.628283 4.39596-12.024242 4.783838-13.187879 12.929293 2.068687 55.078788 4.39596 126.577778 7.111111z m-96.193939-145.842424l44.735353 94.254546-36.589899-22.884849c-10.472727 11.894949-19.652525 23.919192-27.797979 35.943435-8.016162 12.024242-14.092929 22.367677-18.101011 31.159595-4.008081 8.662626-7.240404 16.549495-9.826262 23.531314-2.585859 6.981818-4.137374 12.153535-4.654546 15.644444l-1.034343 5.171717-47.321212-88.824242c-2.844444-4.266667-4.266667-8.921212-4.525253-13.963637-0.129293-5.042424 0.387879-8.921212 1.551515-11.636363l1.939394-4.525253c5.818182-10.472727 15.256566-25.987879 28.315152-46.80404L308.557576 593.325253l107.830303 4.266666z m306.294949 128.646465l-46.80404 89.341414c-1.939394 4.783838-5.042424 8.662626-9.050505 11.636364-4.008081 2.844444-7.628283 4.654545-10.860606 5.042424l-4.525253 1.034343c-11.765657 1.163636-29.99596 2.19798-54.561616 2.973738l1.939394 40.856565-57.276768-91.280808L594.294949 695.59596l1.680809 43.054545c28.185859 2.715152 51.717172 3.10303 70.464646 1.292929s32.840404-4.525253 42.278788-8.274747l13.963636-5.430303zM527.321212 496.226263c-7.757576 10.472727-29.737374 46.545455-65.939394 108.218181l-78.868687-46.545454-4.783838-2.973737 55.983838-88.565657c3.361616-5.171717 8.274747-8.921212 14.868687-11.248485 6.593939-2.327273 13.317172-3.10303 19.911111-2.456566 4.008081 0.387879 8.016162 1.292929 12.024243 2.973738 4.008081 1.680808 7.49899 3.361616 10.472727 5.171717 2.844444 1.810101 6.335354 4.525253 10.343434 8.274747 4.008081 3.620202 6.981818 6.464646 8.921212 8.533334 1.939394 2.068687 5.042424 5.30101 8.921213 9.826262 4.137374 4.654545 6.852525 7.49899 8.145454 8.79192z m163.038384 76.412121l52.751515 90.375757c2.973737 6.076768 4.008081 12.412121 3.10303 18.876768-0.905051 6.464646-3.232323 12.670707-6.852525 18.359596-2.19798 3.361616-4.913131 6.335354-8.274747 9.179798-3.361616 2.844444-6.464646 5.171717-9.438384 6.981818-2.973737 1.810101-6.981818 3.620202-12.024243 5.430303-5.042424 1.810101-8.921212 3.10303-11.636363 4.008081-2.715152 0.775758-6.981818 1.939394-12.8 3.490909-5.818182 1.551515-9.567677 2.456566-11.507071 2.973738-5.688889-11.894949-27.668687-48.09697-65.939394-108.476768l77.834344-48.484849 4.783838-2.715151z m-35.555556-56.242424l35.29697-20.686869-54.690909 92.832323-104.210101-5.042424 37.624242-21.462626c-5.688889-14.739394-11.894949-28.573737-18.618181-41.373738-6.852525-12.8-13.058586-23.014141-18.747475-30.771717s-11.119192-14.351515-16.032323-19.911111c-5.042424-5.559596-8.921212-9.438384-11.636364-11.636364l-4.266667-3.232323 100.848485 0.258586c5.171717-0.517172 9.955556 0.387879 14.480808 2.585859 4.525253 2.19798 7.757576 4.654545 9.69697 7.111111l2.715151 3.749495c6.076768 10.472727 15.385859 26.246465 27.539394 47.579798z m0 0" p-id="2698" fill="#1890ff"></path></svg>