<?xml version="1.0" standalone="no"?><!DOCTYPE svg PUBLIC "-//W3C//DTD SVG 1.1//EN" "http://www.w3.org/Graphics/SVG/1.1/DTD/svg11.dtd"><svg t="1534471749627" class="icon" style="" viewBox="0 0 1024 1024" version="1.1" xmlns="http://www.w3.org/2000/svg" p-id="2658" xmlns:xlink="http://www.w3.org/1999/xlink" width="200" height="200"><defs><style type="text/css"></style></defs><path d="M1008.05632 454.561792c-72.046592 87.754752-199.442432 232.630272-199.442432 232.630272s20.836352 159.064064 32.514048 267.716608c5.076992 55.339008-34.822144 79.271936-80.00512 57.700352-85.979136-43.19232-216.817664-110.112768-246.249472-125.192192-29.952 14.927872-162.103296 80.744448-248.973312 123.836416-45.705216 21.520384-86.081536-2.408448-80.945152-57.647104 11.833344-108.4928 32.882688-267.403264 32.882688-267.403264S88.979456 541.632512 16.09728 453.9904c-25.757696-31.830016-9.218048-77.07648 41.570304-85.395456 103.56736-19.580928 264.103936-50.7904 264.103936-50.7904s87.808-161.841152 143.362048-260.958208c30.57664-60.3136 51.728384-53.3504 55.345152-51.574784 9.422848 3.24608 24.295424 14.974976 43.712512 51.625984 54.923264 99.270656 141.740032 261.326848 141.740032 261.326848s158.64832 31.21152 261.011456 50.8416c50.178048 8.368128 66.564096 53.665792 41.1136 85.495808z" fill="#F7CD3F" p-id="2659" data-spm-anchor-id="a313x.7781069.0.i1" class="selected"></path></svg>