<?xml version="1.0" standalone="no"?><!DOCTYPE svg PUBLIC "-//W3C//DTD SVG 1.1//EN" "http://www.w3.org/Graphics/SVG/1.1/DTD/svg11.dtd"><svg t="1534297997070" class="icon" style="" viewBox="0 0 1024 1024" version="1.1" xmlns="http://www.w3.org/2000/svg" p-id="4642" xmlns:xlink="http://www.w3.org/1999/xlink" width="200" height="200"><defs><style type="text/css"></style></defs><path d="M937.6 796.8H896V736h32c3.2 0 3.2 0 3.2-3.2v-51.2c0-3.2 0-3.2-3.2-3.2h-32v-57.6c0-3.2 0-3.2-3.2-3.2h-54.4c-3.2 0-3.2 0-3.2 3.2v57.6h-38.4v-57.6c0-3.2 0-3.2-3.2-3.2h-54.4c-3.2 0-3.2 0-3.2 3.2v57.6h-32c-3.2 0-3.2 0-3.2 3.2v51.2c0 3.2 0 3.2 3.2 3.2h32v57.6h-38.4c-3.2 0-3.2 0-3.2 3.2v51.2c0 3.2 0 3.2 3.2 3.2h54.4c-25.6 28.8-44.8 48-57.6 60.8v6.4l41.6 38.4h6.4c9.6-9.6 22.4-22.4 41.6-44.8 9.6-9.6 19.2-22.4 25.6-28.8v-3.2-3.2l-35.2-22.4h76.8l-32 25.6v6.4c16 19.2 41.6 41.6 70.4 70.4h3.2l41.6-38.4v-3.2-3.2c-6.4-3.2-12.8-9.6-22.4-19.2l-22.4-22.4c-6.4-6.4-12.8-9.6-16-16h60.8c3.2 0 3.2 0 3.2-3.2V800c3.2-3.2 0-3.2 0-3.2z m-140.8 0V736h38.4v57.6h-38.4z" p-id="4643" fill="#1890ff"></path><path d="M716.8 633.6s0-3.2 0 0l-57.6-16c-3.2 0-3.2 0-3.2 3.2-12.8 54.4-32 102.4-57.6 137.6v3.2c0 9.6 3.2 25.6 6.4 48 0 16 3.2 25.6 3.2 32 0 0 0 3.2 3.2 3.2h3.2c6.4-6.4 12.8-16 19.2-25.6v137.6c0 3.2 0 3.2 3.2 3.2h54.4c3.2 0 3.2 0 3.2-3.2v-246.4c6.4-25.6 16-51.2 22.4-76.8z" p-id="4644" fill="#1890ff"></path><path d="M416 403.2m-73.6 0a73.6 73.6 0 1 0 147.2 0 73.6 73.6 0 1 0-147.2 0Z" p-id="4645" fill="#1890ff"></path><path d="M771.2 531.2c25.6 0 51.2 3.2 73.6 9.6h3.2V179.2c0-60.8-51.2-112-112-112H195.2c-60.8 0-112 51.2-112 112v636.8c0 60.8 51.2 112 112 112h358.4l3.2-3.2v-3.2c-25.6-41.6-38.4-86.4-38.4-134.4 0-140.8 115.2-256 252.8-256z m-208-128c0 35.2 25.6 64 35.2 70.4-3.2 3.2-9.6 16-28.8 48-32-9.6-57.6-6.4-80 6.4-32 19.2-41.6 54.4-44.8 64h-57.6c-9.6-35.2-25.6-57.6-51.2-67.2-32-16-64-6.4-73.6 0l-28.8-48c25.6-25.6 38.4-51.2 35.2-76.8-3.2-35.2-28.8-57.6-35.2-64 3.2-3.2 9.6-16 28.8-48 32 9.6 60.8 6.4 83.2-9.6 28.8-19.2 38.4-54.4 41.6-64h54.4c6.4 28.8 19.2 48 38.4 60.8 35.2 19.2 76.8 12.8 86.4 9.6 3.2 6.4 9.6 19.2 28.8 48-19.2 19.2-32 44.8-32 70.4z" p-id="4646" fill="#1890ff"></path></svg>