<?xml version="1.0" standalone="no"?><!DOCTYPE svg PUBLIC "-//W3C//DTD SVG 1.1//EN" "http://www.w3.org/Graphics/SVG/1.1/DTD/svg11.dtd"><svg t="1533611800397" class="icon" style="" viewBox="0 0 1024 1024" version="1.1" xmlns="http://www.w3.org/2000/svg" p-id="1748" xmlns:xlink="http://www.w3.org/1999/xlink" width="32" height="32"><defs><style type="text/css"></style></defs><path d="M239.521 477.907c23.388 0 42.368-18.94 42.368-42.367V266.102c0-23.426-18.98-42.406-42.368-42.406-23.386 0-42.372 18.98-42.372 42.406V435.54c0.001 23.426 18.942 42.367 42.372 42.367z m0 0M421.363 465.536c7.717 7.667 18.309 12.371 29.997 12.371 23.387 0 42.367-18.94 42.367-42.367 0-11.655-4.744-22.286-12.409-29.959l-12.415-12.369H747.94c23.388 0 42.367-18.985 42.367-42.41 0-23.388-18.979-42.327-42.367-42.327H468.902l12.415-12.46c7.665-7.666 12.415-18.258 12.415-29.913 0-23.426-18.985-42.406-42.373-42.406-11.688 0-22.28 4.745-29.953 12.41l-84.732 84.782c-3.817 3.772-6.821 8.264-8.946 13.22-0.039 0.083-0.123 0.128-0.167 0.211-2.163 5.04-3.301 10.633-3.301 16.482 0 11.693 4.743 22.287 12.414 29.996l84.689 84.739z m0 0" p-id="1749" fill="#1890ff"></path><path d="M610.795 903.838H210.766c-30.959 0-56.044-25.092-56.044-56.05V175.19c0-30.957 25.085-56.055 56.044-56.055h560.506c30.952 0 56.05 25.098 56.05 56.055v387.931c8.699-0.806 17.47-1.336 26.376-1.336 10.022 0 19.923 0.554 29.673 1.564V147.231c0-46.428-39.68-84.072-88.627-84.072H187.295c-48.948 0-88.627 37.645-88.627 84.072v728.51c0 46.433 39.68 84.072 88.627 84.072h437.883l-0.383-55.976h-14z m-18 0" p-id="1750" fill="#1890ff"></path><path d="M604.648 714.453c7.671-7.708 12.414-18.303 12.414-29.995 0-5.85-1.139-11.443-3.302-16.482-0.044-0.083-0.128-0.129-0.167-0.213-2.124-4.955-5.129-9.447-8.945-13.219l-84.732-84.783c-7.673-7.664-18.265-12.409-29.953-12.409-23.387 0-42.371 18.979-42.371 42.406 0 11.655 4.748 22.247 12.414 29.913l12.415 12.459H241.383c-23.387 0-42.367 18.94-42.367 42.328 0 23.426 18.979 42.409 42.367 42.409h231.038l-12.415 12.37c-7.666 7.672-12.409 18.304-12.409 29.958 0 23.427 18.979 42.366 42.366 42.366 11.688 0 22.28-4.703 29.998-12.37l84.687-84.738z m-84.687 84.738M926 640.965c0 17.673-14.327 32-32 32H689.617c-17.673 0-32-14.327-32-32 0-17.673 14.327-32 32-32H894c17.673 0 32 14.327 32 32zM926 769.511c0 17.673-14.327 32-32 32H689.617c-17.673 0-32-14.327-32-32 0-17.673 14.327-32 32-32H894c17.673 0 32 14.327 32 32zM926 899.056c0 17.673-14.327 32-32 32H689.617c-17.673 0-32-14.327-32-32 0-17.673 14.327-32 32-32H894c17.673 0 32 14.327 32 32z" p-id="1751" fill="#1890ff"></path></svg>